<svg xmlns="http://www.w3.org/2000/svg" width="320" height="188" viewBox="0 0 240 141"><g data-name="Layer 1"><path d="M138.864 89.586c-2.783 20.595-23.54 9.595-33.702 2.92-1.891-1.27-3.513-2.46-5.27-3.757l-5.08-4.027c.62 0 3.73.838 4.648 1.027 8.81 1.757 31.432 3.865 38.08 1.73.784-1.865.081-8.46-.216-10.73-.595 1.054-.892 3.757-2.784 5.784-3.486 3.757-8.189.324-8.675-5.595-.19-2.567.621-5.243 1.783-6.973 2.784-4.135 8.054-4.35 9.514 1.649.378 1.46.108 2.675.35 4 1.109 5.756 1.244 4.567 1.542 11.567 4.27-.162 10.729-3.919 13.675-7.432 1.865-2.216 1.892-3.378 2.675-4.513-.54 6.702-7.945 11.27-13.648 13.35-1 .38-2.054.595-2.892 1zm9.649-15.08c-2.135 10.594-11.568 4.594-9.595-3.92.649-2.81 2.946-6.485 6.514-5.134 2.783 1.054 3.81 5.46 3.08 9.054zm-5.433-15.243c-.054.595-3.189 6.243-6.864 4.757-4.108-1.649-2.757-9.433 2.648-10.73 1.811-.432 3.514.649 3.838 1.973.784 2.973-2.892 6.081-5.324 6.433.378-.703 1.027-1.027 2.027-2.406 2.135-2.892 1.054-7.27-2.297-3.405-.27.324-.595.837-.811 1.297-1.92 4.135 1.135 8.324 4.486 4 1.135-1.433 1.325-1.919 2.297-1.919zm-28.81 3.27.946-.08c.19-5.46-.351-20.865 8.243-19.676.811-.676 1.297-1.54 3.081-1.81 5.514-.839 7.054 6.404 4.135 7.783.081-2.054.027-4.46-1.162-5.757-1.594-1.73-3.513-.622-4.189.811.649.946 1.162 1.324 1.378 2.973.163 1.405.027 2.567-1.297 3.027 0-.973.108-3.892-.81-4.676-2.055 3.243-2.433 12.108-2.65 16.432l2.406-.46c.324-4.54 4.865-7.404 7.216-6.134 2.784 1.486.081 7.027-3.513 8.08 6.108-5.81 1.73-10.432-1.19-4.35-1.567 3.243.325 8.567 4.27 4.135.406-.433.703-.73 1.082-1.19.432-.567.648-.838 1.432-.864-.216 1.135-4.08 7.134-7.73 4.189-1.297-1.054-.918-1.784-1.648-2.865l-2.324.567c-.379 3.27.243 9.514.594 12.892.217 2 .46 3.892.865 5.784.216.946.649 2.945 1.379 3.648.46.486 1.027.433.432.946-.865.757-2.676-3.324-2.865-3.838-2.189-5.594-2.432-13-2.838-18.972-.675.027-1.594.297-2.08.567-.055 2.46.459 16.946 2.567 19.135.27.27.54.324.595.513-.244.541-.244.622-.92.136-3.135-2.216-4.378-16.162-4.486-19.432-1.892.054-.486 1.08-1.892 3.675-.757 1.325-1.702 2.19-3.837 1.946-.46 4-3.649 10.405-7.243 12.297-3.595 1.865-8.379.946-11.405-1.432-.811-.649-1.892-1.568-2.541-2.46-.81-1.108-1.19-1.594-1.892-2.945-4.27-8.46-1.297-20.135 2.892-27.567 1.46-2.595 6.594-9.297 11.486-7.757 6.54 2.081 6.162 17.432 2.784 22.026-1.325 1.784-4.621 2.892-6.865 1.082-1.865-1.568-2.243-4.622-.973-7.298 1.162-2.486 3.892-4.864 5.811-3.675-1.135.675-2.081.675-3 1.649-.649.675-1.351 1.945-1.648 3.188-.65 2.65.702 6.379 3.486 5.622 1.783-.513 2.702-4.405 2.946-6.594.702-6.595-1.244-21.243-9.92-9.757-5.377 7.162-8.512 21.162-3.377 29.675 3.918 6.486 11.486 8.08 16.243-1.81.486-1.028.918-2.217 1.297-3.379.892-2.649.243-1.514-.514-3.46-1.594-4.242 1.946-9.62 5.379-7.486 1.243.784 1.189 1.568 1.864 2.946zm3.297-34.999c-9.81.54-17.864 4-24.999 9.784l-3.594 3.189c-.244.243-.433.486-.676.784-3.676 4.432-5.946 7.378-8.297 13.134-2.243 5.514-3.487 12.162-3.027 18.649.595 8.891 4.135 18.594 9.892 24.972l2.594 2.891c.487.487.946.812 1.433 1.325.837.919 1.864 1.649 2.864 2.432 3.054 2.379 6.514 4.351 10.297 5.865 11.433 4.513 24.54 4 35.405-1.648 2.649-1.352 4.432-2.595 6.567-4.109l5.676-5.135c3.594-4.405 6-7.324 8.27-13.189 11.621-30.026-11.46-60.7-42.405-58.944" fill="#1b1a16" fill-rule="evenodd"/><path d="M111.19 60.587c1.621-.783 2.567 1.92 2.459 3.595-.082 1.81-.838 3.702-2 4.162-3.406 1.405-2.973-6.567-.46-7.757zm6.242 1.568c.163-4.811.54-17.864 5.243-18.35-.432 1.215-1.135 2.215-1.594 3.81-.405 1.432-.676 2.864-.892 4.378-1.513 10.621.892 9.703-2.757 10.162zm-3.162.378c-.675-1.378-.621-2.162-1.864-2.946-3.433-2.135-6.973 3.243-5.379 7.487.757 1.945 1.406.81.514 3.46-.379 1.161-.81 2.35-1.297 3.377-4.757 9.892-12.325 8.297-16.243 1.81-5.135-8.512-2-22.512 3.378-29.674 8.675-11.486 10.621 3.162 9.919 9.757-.244 2.189-1.163 6.08-2.946 6.594-2.784.757-4.135-2.973-3.487-5.622.298-1.243 1-2.513 1.649-3.188.919-.974 1.865-.974 3-1.65-1.919-1.188-4.648 1.19-5.81 3.676-1.27 2.676-.893 5.73.972 7.298 2.243 1.81 5.54.702 6.865-1.082 3.378-4.594 3.757-19.945-2.784-22.026-4.892-1.54-10.026 5.162-11.486 7.757-4.19 7.432-7.162 19.107-2.892 27.566.703 1.352 1.081 1.838 1.892 2.946.649.892 1.73 1.811 2.54 2.46 3.027 2.378 7.811 3.297 11.405 1.432 3.595-1.892 6.784-8.297 7.244-12.297 2.135.243 3.08-.621 3.837-1.946 1.406-2.594 0-3.621 1.892-3.675.108 3.27 1.352 17.216 4.487 19.432.675.486.675.405.919-.136-.055-.189-.325-.243-.595-.513-2.108-2.19-2.622-16.675-2.568-19.135.487-.27 1.406-.54 2.081-.567.406 5.972.649 13.378 2.838 18.972.19.514 2 4.595 2.865 3.838.595-.513.027-.46-.432-.946-.73-.703-1.163-2.703-1.379-3.648-.405-1.892-.648-3.784-.865-5.784-.35-3.378-.973-9.622-.594-12.892l2.324-.567c.73 1.08.352 1.81 1.649 2.865 3.648 2.945 7.513-3.054 7.73-4.19-.785.027-1 .298-1.433.865-.379.46-.676.757-1.081 1.19-3.946 4.432-5.838-.892-4.27-4.136 2.918-6.08 7.297-1.459 1.189 4.352 3.594-1.054 6.297-6.595 3.513-8.081-2.351-1.27-6.892 1.594-7.216 6.135l-2.405.46c.216-4.325.594-13.19 2.648-16.433.92.784.811 3.703.811 4.676 1.324-.46 1.46-1.622 1.297-3.027-.216-1.649-.73-2.027-1.378-2.973.676-1.433 2.595-2.54 4.19-.81 1.188 1.297 1.242 3.702 1.161 5.756 2.92-1.379 1.379-8.622-4.135-7.784-1.784.27-2.27 1.135-3.08 1.811-8.595-1.19-8.054 14.216-8.244 19.675z" fill="#fcfcfc" fill-rule="evenodd"/><path d="M165.783 73.37c-.352 6.568-2.298 12.892-4.946 18.027-1.19 2.352-4.514 7.54-6.297 9.351-.379.352-.406.352-.703.73-.946 1.135-3.108 3.19-4.378 4.19-4.217 3.296-7.19 5.404-12.622 7.54-5.972 2.378-12.702 3.513-19.675 3.135-24.297-1.352-44.728-22.567-42.999-48.756.595-8.973 3.892-18 9.351-24.972.433-.54.811-.946 1.244-1.487 1.54-2 3.756-4.162 5.702-5.756 3.919-3.244 7.622-5.568 12.621-7.54 14.73-5.811 32.513-3.514 44.837 6.27 3.649 2.891 2.919 2.73 5.973 5.486 1.135 1.027 4.162 5.27 4.946 6.513 1.46 2.352 2.73 4.784 3.837 7.595 2.379 6.053 3.487 12.567 3.109 19.675zM117.81 22.887h4.35c3.19.162 6.46.648 9.839 1.486 6.432 1.622 12 4.486 17.297 8.513l4.54 4c3.919 3.892 6.919 8.486 9.432 13.486 1.19 2.352 2.325 5.811 2.973 8.46 1.08 4.567 1.351 6.783 1.432 10.54V72.992c-.189 7.595-3.108 16.081-6.486 21.649-.73 1.216-1.378 2.35-2.189 3.459-2.81 3.783-4.19 5.243-7.486 8.324-2.838 2.649-7.757 5.756-11.325 7.405-5.81 2.676-11.972 4.162-18.215 4.406h-3.568a48.261 48.261 0 0 1-10.27-1.46c-9.81-2.433-17.27-7.486-23.999-14.702-1.81-1.973-4-5.19-5.378-7.514-1.595-2.648-2.595-4.945-3.676-7.81a42.426 42.426 0 0 1-1.297-4.324c-1.108-4.622-1.379-6.865-1.46-10.649v-3.648c.19-7.595 3.109-16.081 6.487-21.649 3.08-5.107 5.432-7.81 9.675-11.783 3.757-3.486 10.514-7.46 15.432-9.08 4.73-1.595 9.27-2.514 13.892-2.73" fill="#1b1b17" fill-rule="evenodd"/><path d="M76.11 72.425c-.352-10.378 2.918-21.324 9.323-29.027l1.243-1.486c11.649-14.107 32.567-19.243 49.972-12.027 5.892 2.46 12.054 6.622 16.027 11.378.973 1.163 1.297 1.379 2.486 3a45.934 45.934 0 0 1 4.19 6.811c7.62 15.46 5.513 32.945-4.838 46.567-.433.54-.865.972-1.27 1.486-.892 1.135-.676.702-1.325 1.432-5.892 6.595-16.621 13.19-30.053 13.838-24.675 1.189-45.026-18.594-45.756-41.972zm41.7-46.89c-10.702.27-20.296 4.891-27.972 11.485l-1.378 1.352c-4.27 4.08-8.054 9.648-10.216 15.135-12.513 31.782 12.108 63.809 43.945 61.998 6.54-.379 12.567-2.027 17.783-4.622 5.217-2.621 6.27-3.837 10.108-6.837.54-.433.865-.92 1.378-1.379 1.514-1.432 2.703-2.838 4-4.405 2.298-2.81 4.757-7.19 6.217-10.73 6.216-15.08 3.459-33.269-6.892-45.62-2.865-3.378-6.622-6.865-10.432-9.27-2.243-1.405-4.622-2.702-7.433-3.838-6-2.486-12.08-3.46-19.107-3.27" fill="#1b1a17" fill-rule="evenodd"/><path d="M137.297 89.83c-2.649 17.243-22.946 6.459-31.702 1.757-1.108-.595-9.081-5.541-9.919-6.406 1.081.19 2.46.757 3.622 1.081 3.594 1.054 7.648 1.946 11.297 2.595 7.189 1.27 14.837 1.973 22.188 1.432 1.217-.08 3.514-.513 4.514-.46zm-4.892-21.297c2.81-1.243 4.432 3.243 4.324 6.46-.08 2.837-1.189 6.107-3.703 7.297-5.756 2.756-5.594-11.568-.621-13.757zm6.46 21.053c.837-.405 1.891-.62 2.891-1 5.703-2.08 13.108-6.648 13.648-13.35-.783 1.135-.81 2.297-2.675 4.513-2.946 3.513-9.405 7.27-13.675 7.432-.298-7-.433-5.81-1.541-11.567-.243-1.325.027-2.54-.351-4-1.46-6-6.73-5.784-9.514-1.649-1.162 1.73-1.973 4.406-1.783 6.973.486 5.919 5.189 9.352 8.675 5.595 1.892-2.027 2.19-4.73 2.784-5.784.297 2.27 1 8.865.216 10.73-6.648 2.135-29.27.027-38.08-1.73-.919-.19-4.027-1.027-4.649-1.027l5.081 4.027c1.757 1.297 3.379 2.486 5.27 3.756 10.162 6.676 30.919 17.676 33.702-2.919" fill="#fcfcfc" fill-rule="evenodd"/><path d="M117.81 25.534c7.028-.19 13.109.784 19.108 3.27 2.811 1.136 5.19 2.433 7.433 3.838 3.81 2.405 7.567 5.892 10.432 9.27 10.351 12.351 13.108 30.54 6.892 45.62-1.46 3.54-3.92 7.92-6.217 10.73-1.297 1.567-2.486 2.973-4 4.405-.513.46-.837.946-1.378 1.379-3.838 3-4.891 4.216-10.108 6.837-5.216 2.595-11.243 4.243-17.783 4.622-31.837 1.81-56.458-30.216-43.945-61.998 2.162-5.487 5.946-11.054 10.216-15.135l1.378-1.352c7.676-6.594 17.27-11.216 27.973-11.486zm47.973 47.837c.378-7.108-.73-13.621-3.109-19.675-1.108-2.811-2.378-5.243-3.837-7.595-.784-1.243-3.811-5.486-4.946-6.513-3.054-2.757-2.324-2.595-5.973-5.487-12.324-9.783-30.107-12.08-44.837-6.27-5 1.973-8.702 4.297-12.62 7.54-1.947 1.595-4.163 3.757-5.703 5.757-.433.54-.811.946-1.244 1.487-5.459 6.973-8.756 16-9.35 24.972-1.73 26.189 18.701 47.404 42.998 48.756 6.973.378 13.702-.757 19.675-3.135 5.433-2.135 8.405-4.244 12.622-7.54 1.27-1 3.432-3.055 4.378-4.19.297-.378.324-.378.703-.73 1.783-1.81 5.108-7 6.297-9.35 2.648-5.136 4.594-11.46 4.946-18.027" fill="#fafafa" fill-rule="evenodd"/><path d="M117.567 27.534c30.946-1.757 54.026 28.918 42.405 58.944-2.27 5.865-4.676 8.784-8.27 13.19l-5.676 5.134c-2.135 1.514-3.918 2.757-6.567 4.109-10.865 5.648-23.972 6.161-35.404 1.648-3.784-1.514-7.244-3.486-10.298-5.865-1-.783-2.027-1.513-2.864-2.432-.487-.513-.946-.838-1.433-1.325l-2.594-2.891c-5.757-6.378-9.297-16.08-9.892-24.972-.46-6.487.784-13.135 3.027-18.649 2.351-5.756 4.621-8.702 8.297-13.134.243-.298.432-.541.676-.784l3.594-3.19c7.135-5.783 15.19-9.242 25-9.783zM76.11 72.424c.73 23.379 21.08 43.162 45.756 41.973 13.432-.649 24.161-7.243 30.053-13.838.649-.73.433-.297 1.324-1.432.406-.514.838-.946 1.27-1.486 10.352-13.622 12.46-31.108 4.838-46.567a45.934 45.934 0 0 0-4.189-6.81c-1.189-1.622-1.513-1.838-2.486-3-3.973-4.757-10.135-8.92-16.027-11.379-17.405-7.216-38.323-2.08-49.972 12.027l-1.243 1.486c-6.405 7.703-9.675 18.649-9.324 29.027" fill="#fafafa" fill-rule="evenodd"/><path d="M137.297 89.83c-1-.054-3.297.378-4.514.46-7.35.54-15-.163-22.188-1.433-3.649-.649-7.703-1.54-11.297-2.595-1.162-.324-2.54-.892-3.622-1.08.838.864 8.81 5.81 9.919 6.405 8.756 4.702 29.053 15.486 31.702-1.757" fill="#1b1a17" fill-rule="evenodd"/><path d="M132.405 68.533c-4.973 2.19-5.135 16.513.621 13.757 2.514-1.19 3.622-4.46 3.703-7.298.108-3.216-1.513-7.702-4.324-6.459M144.35 66.587c-4.107 1.297-4 13.892.811 11.892 2-.838 3.054-3.622 2.92-6.54-.109-2.27-1.487-6.054-3.73-5.352" fill="#1b1a16" fill-rule="evenodd"/><path d="M144.35 66.587c2.244-.703 3.622 3.081 3.73 5.351.135 2.92-.919 5.703-2.919 6.54-4.81 2-4.918-10.594-.81-11.89zm4.163 7.919c.73-3.595-.298-8-3.081-9.054-3.568-1.351-5.865 2.324-6.514 5.135-1.973 8.513 7.46 14.513 9.595 3.919M143.08 59.263c-.972 0-1.162.486-2.297 1.919-3.351 4.324-6.405.135-4.486-4 .216-.46.54-.973.81-1.297 3.352-3.865 4.433.513 2.298 3.405-1 1.379-1.649 1.703-2.027 2.406 2.432-.352 6.108-3.46 5.324-6.433-.324-1.324-2.027-2.405-3.838-1.973-5.405 1.297-6.756 9.081-2.648 10.73 3.675 1.486 6.81-4.162 6.864-4.757" fill="#fcfcfc" fill-rule="evenodd"/><path d="M117.432 62.155c3.649-.46 1.244.46 2.757-10.162.216-1.514.487-2.946.892-4.378.46-1.595 1.162-2.595 1.594-3.81-4.702.486-5.08 13.539-5.243 18.35M111.19 60.587c-2.514 1.19-2.947 9.162.459 7.757 1.162-.46 1.918-2.351 2-4.162.108-1.676-.838-4.378-2.46-3.595" fill="#1b1a16" fill-rule="evenodd"/><path d="M124.975 95.686a.18.18 0 0 1-.184-.184c0-.05.018-.093.053-.13a.178.178 0 0 1 .13-.053c.051 0 .094.018.13.054a.176.176 0 0 1 .054.13.178.178 0 0 1-.054.13.178.178 0 0 1-.13.053zm2.761-.133a.35.35 0 0 1-.104-.023.36.36 0 0 0-.103-.023c-.05 0-.127.003-.228.008-.1.006-.176.01-.228.01-.038 0-.095.004-.17.013-.077.01-.134.015-.172.015a.255.255 0 0 1-.047-.007.267.267 0 0 0-.048-.005c-.068 0-.113-.034-.134-.1a.63.63 0 0 1-.017-.178c0-.23.062-.415.188-.555.057-.064.212-.183.464-.355.141-.097.235-.172.283-.227a.485.485 0 0 0 .127-.333c0-.064-.04-.12-.123-.169a.402.402 0 0 0-.212-.066.475.475 0 0 0-.26.078l-.212.166c-.043.033-.077.05-.102.05-.102 0-.153-.04-.153-.121 0-.047.018-.087.056-.12a1.67 1.67 0 0 1 .302-.237.736.736 0 0 1 .798.028c.14.098.21.224.21.377 0 .1-.014.194-.043.279a.73.73 0 0 1-.13.232c-.074.09-.2.188-.377.298a2.233 2.233 0 0 0-.366.266.562.562 0 0 0-.162.413l.306-.028c.21-.011.36-.018.45-.018.075 0 .145.013.213.039.089.035.133.082.133.144a.15.15 0 0 1-.04.103.129.129 0 0 1-.099.046zm1.263.054c-.3 0-.52-.137-.658-.412-.105-.211-.158-.487-.158-.825 0-.287.069-.537.205-.75.16-.25.38-.375.657-.375.26 0 .463.11.608.332.125.191.188.425.188.7 0 .444-.07.776-.21.998-.141.221-.352.332-.632.332zm.044-2.077c-.184 0-.33.093-.437.28-.09.156-.135.334-.135.535 0 .325.045.57.132.732.088.163.22.245.395.245.21 0 .36-.12.45-.36.064-.165.096-.375.096-.63 0-.268-.042-.468-.125-.602a.414.414 0 0 0-.376-.2zm1.949 2.02h-.295l-.294-.002a.551.551 0 0 1-.145-.013c-.05-.018-.076-.056-.076-.113 0-.1.078-.15.232-.15l.072.001.06.003c0-.047-.004-.117-.012-.21a2.679 2.679 0 0 1-.012-.209c0-.125.011-.316.034-.572a6.9 6.9 0 0 0 .03-.573c-.132.103-.216.155-.252.155a.137.137 0 0 1-.102-.044.142.142 0 0 1-.044-.102c0-.047.042-.103.127-.17a3.52 3.52 0 0 0 .226-.18c.086-.088.168-.132.247-.132.066 0 .099.038.099.114a.989.989 0 0 1-.008.101.969.969 0 0 0-.008.102c0 .032.002.081.005.148.003.066.005.115.005.147 0 .113-.012.28-.036.504-.023.223-.034.39-.034.502 0 .057.004.127.011.209.008.081.012.149.013.201l.156-.003a.14.14 0 0 1 .144.143.138.138 0 0 1-.143.142zm1.75-.647v.548c0 .092-.045.138-.135.138-.105 0-.158-.071-.158-.215l.003-.075.003-.067-.001-.335-.655-.017c-.136 0-.23-.005-.282-.014-.09-.014-.135-.05-.135-.105 0-.045.027-.101.082-.17l.128-.15.73-1.067a.3.3 0 0 1 .252-.138c.112 0 .168.048.168.145v1.233a.936.936 0 0 1 .061-.001c.182 0 .273.049.273.147 0 .071-.037.116-.112.135a.952.952 0 0 1-.221.008zm-.288-1.256c-.264.421-.47.736-.62.946l.62.015z" fill="#fff"/><path stroke-width=".283" stroke-miterlimit="2.613" fill="none" stroke="#fff" d="M120.547 92.937c-1.119.15-1.979.996-2.58 2.537"/><path stroke-width=".283" stroke-miterlimit="2.613" fill="none" stroke="#fff" d="M119.086 92.69c-.036 1.462-.338 2.661-.028 3.423.371.91 1.39 1.066 1.677-1.519"/><path stroke-width=".283" stroke-miterlimit="2.613" fill="none" stroke="#fff" d="M120.547 93.714c-.774.26-1.518 1.023-1.736 1.76M121.336 94.856c1.807.132.292-1.978.26-.498-.006.257.426.515.507 1.029.184 1.177-1.496.356-.688-.261M123.709 92.69c-.026.074-1.431 4.421.092 2.895"/><path stroke-width=".283" stroke-miterlimit="2.613" fill="none" stroke="#fff" d="M122.644 94.462a2.55 2.55 0 0 1 1.34-.185"/></g></svg>